<svg width="317" height="50" viewBox="0 0 317 50" fill="none" xmlns="http://www.w3.org/2000/svg">
<rect width="317" height="50" fill="white"/>
<path d="M41.7439 36.824C42.368 36.824 43.4964 36.8749 44.3228 37.5364C44.6767 37.8082 45.3341 38.5031 45.3341 39.877C45.3341 40.4367 45.2156 41.4195 44.2216 42.0985C45.7892 42.4881 46.3613 43.8619 46.3613 44.948C46.3613 46.034 45.8224 46.915 45.2156 47.3904C44.3228 48.1028 43.2941 48.1362 42.5197 48.1362H39.7227V36.8254H41.7439V36.824ZM40.968 41.7917H41.9115C42.5688 41.7917 44.119 41.6565 44.119 39.909C44.119 38.0437 42.2987 38.0103 41.9447 38.0103H40.9666V41.7917H40.968ZM40.968 46.947H42.4012C43.1251 46.947 43.833 46.8961 44.3733 46.4716C44.8111 46.1488 45.1145 45.5905 45.1145 44.9116C45.1145 44.0131 44.5915 43.4869 44.1537 43.2499C43.7319 43.0129 43.1424 42.9111 42.2495 42.9111H40.968V46.947Z" fill="#068C53"/>
<path d="M53.826 43.0638C53.1859 42.2497 52.2584 42.0127 51.6357 42.0127C50.3383 42.0127 49.158 42.9286 49.158 44.6412C49.158 46.3538 50.3716 47.2523 51.6184 47.2523C52.3422 47.2523 53.2365 46.9295 53.8765 46.1503V47.6085C53.118 48.1682 52.309 48.3368 51.6516 48.3368C49.4773 48.3368 47.9111 46.7769 47.9111 44.6572C47.9111 42.5041 49.4946 40.9267 51.6516 40.9267C52.7641 40.9267 53.4879 41.3672 53.826 41.6056V43.0638Z" fill="#068C53"/>
<path d="M61.9311 46.3364C61.7288 46.726 61.4254 47.1505 61.0715 47.4733C60.4314 48.0504 59.6397 48.3383 58.7454 48.3383C57.0609 48.3383 55.291 47.2697 55.291 44.6586C55.291 42.5564 56.5711 40.9281 58.679 40.9281C60.0442 40.9281 60.9039 41.6071 61.3243 42.2162C61.7621 42.8443 62.0149 43.9288 61.9817 44.8622H56.5379C56.5552 46.3204 57.5492 47.2537 58.7628 47.2537C59.3363 47.2537 59.7914 47.0836 60.1945 46.7449C60.5152 46.473 60.7681 46.1168 60.9198 45.7781L61.9311 46.3364ZM57.2804 37.9594C57.7355 37.9594 58.1227 38.349 58.1227 38.807C58.1227 39.265 57.7355 39.6546 57.2804 39.6546C56.8253 39.6546 56.4381 39.265 56.4381 38.807C56.4381 38.349 56.8253 37.9594 57.2804 37.9594ZM60.7348 43.8445C60.5326 42.7425 59.7062 42.0127 58.679 42.0127C57.6503 42.0127 56.808 42.7934 56.6231 43.8445H60.7348ZM60.2133 37.9594C60.6684 37.9594 61.0556 38.349 61.0556 38.807C61.0556 39.265 60.6684 39.6546 60.2133 39.6546C59.7582 39.6546 59.371 39.265 59.371 38.807C59.371 38.349 59.7582 37.9594 60.2133 37.9594Z" fill="#068C53"/>
<path d="M73.1874 41.0968V47.0153H74.2319V50H73.1195V48.1347H67.7941V50H66.6816V47.0153C67.2884 46.9979 67.7435 46.5908 67.979 46.0994C68.2145 45.608 68.2651 44.9465 68.2651 44.2341V41.0968H73.1874ZM71.9752 42.2162H69.4816V44.8622C69.4816 45.6763 69.2966 46.4396 68.6393 47.0153H71.9766V42.2162H71.9752Z" fill="#068C53"/>
<path d="M81.3098 48.1347H80.0962V42.2162H77.6026V45.387C77.6026 45.9802 77.6026 46.7609 77.0637 47.4224C76.8441 47.6942 76.3225 48.1682 75.3791 48.1682C75.2607 48.1682 75.1263 48.1507 75.0078 48.1347V47.0153C75.0916 47.0327 75.1928 47.0487 75.278 47.0487C75.7331 47.0487 76.0192 46.8118 76.1535 46.5908C76.3731 46.252 76.389 45.8101 76.389 45.387V41.0968H81.3098V48.1347Z" fill="#068C53"/>
<path d="M84.9669 45.2344C84.8831 45.2344 84.1246 45.166 83.6189 44.6746C83.3328 44.4028 83.0626 43.9288 83.0626 43.2673C83.0626 42.6058 83.2982 42.0461 83.6868 41.6899C84.2936 41.1128 85.0521 41.0968 85.7427 41.0968H88.1857V48.1347H86.9722V45.3027H86.231L84.243 48.1347H82.7939L84.9669 45.2344ZM86.9722 42.1828H85.8438C85.3555 42.1828 85.0015 42.2162 84.7487 42.3689C84.5464 42.5041 84.3109 42.7759 84.3109 43.2339C84.3109 43.6075 84.4453 43.8954 84.7487 44.0815C85.1027 44.3025 85.5404 44.285 85.8279 44.285H86.9736V42.1828H86.9722Z" fill="#068C53"/>
<path d="M99.8807 43.0638C99.2406 42.2497 98.3131 42.0127 97.6904 42.0127C96.393 42.0127 95.2127 42.9286 95.2127 44.6412C95.2127 46.3538 96.4263 47.2523 97.6731 47.2523C98.3969 47.2523 99.2912 46.9295 99.9312 46.1503V47.6085C99.1727 48.1682 98.3637 48.3368 97.7063 48.3368C95.532 48.3368 93.9658 46.7769 93.9658 44.6572C93.9658 42.5041 95.5493 40.9267 97.7063 40.9267C98.8188 40.9267 99.5426 41.3672 99.8807 41.6056V43.0638Z" fill="#068C53"/>
<path d="M101.161 44.6412C101.161 42.5041 102.729 40.9281 104.868 40.9281C107.008 40.9281 108.576 42.5055 108.576 44.6412C108.576 46.7783 106.991 48.3383 104.868 48.3383C102.746 48.3383 101.161 46.7783 101.161 44.6412ZM102.408 44.6412C102.408 46.3712 103.622 47.2523 104.868 47.2523C106.133 47.2523 107.329 46.3538 107.329 44.6412C107.329 42.9111 106.148 42.0127 104.868 42.0127C103.588 42.0127 102.408 42.9286 102.408 44.6412Z" fill="#068C53"/>
<path d="M110.496 42.1988C110.732 41.86 111.053 41.5198 111.389 41.3163C111.928 40.9936 112.468 40.9267 112.922 40.9267C113.478 40.9267 114.05 40.9776 114.573 41.4181C115.029 41.8077 115.18 42.2657 115.18 42.757C115.18 43.5886 114.742 44.0117 114.389 44.2327C114.742 44.317 115.029 44.5045 115.198 44.6906C115.484 44.9959 115.686 45.4365 115.686 45.9787C115.686 46.7085 115.349 47.3686 114.776 47.7931C114.27 48.1667 113.545 48.3354 112.788 48.3354C112.164 48.3354 111.506 48.2002 110.917 47.7422C110.512 47.4369 110.192 46.979 109.989 46.5384L111.034 46.0979C111.102 46.268 111.269 46.6068 111.658 46.8946C112.045 47.1825 112.434 47.2508 112.804 47.2508C113.074 47.2508 113.613 47.2334 113.984 46.979C114.219 46.8263 114.472 46.5036 114.472 45.9947C114.472 45.6051 114.287 45.3332 114.05 45.1806C113.696 44.9436 113.224 44.9436 112.905 44.9436H112.197V43.8242H112.786C113.343 43.8242 113.595 43.7049 113.696 43.6381C113.881 43.5188 114.068 43.3153 114.068 42.994C114.068 42.6887 113.949 42.4168 113.764 42.2642C113.478 42.0098 113.09 42.0098 112.872 42.0098C112.601 42.0098 112.265 42.0607 111.911 42.2816C111.726 42.4009 111.506 42.5869 111.337 42.8922L110.496 42.1988Z" fill="#068C53"/>
<path d="M122.967 41.0968V47.0153H124.011V50H122.899V48.1347H117.573V50H116.461V47.0153C117.068 46.9979 117.523 46.5908 117.758 46.0994C117.994 45.608 118.044 44.9465 118.044 44.2341V41.0968H122.967ZM121.754 42.2162H119.261V44.8622C119.261 45.6763 119.076 46.4396 118.419 47.0153H121.756V42.2162H121.754Z" fill="#068C53"/>
<path d="M130.651 41.0968H131.864V48.1347H130.651V47.1519C130.246 47.6782 129.488 48.3383 128.258 48.3383C126.489 48.3383 124.854 47.0836 124.854 44.6078C124.854 42.1828 126.473 40.9281 128.258 40.9281C129.606 40.9281 130.332 41.6739 130.651 42.0985V41.0968ZM126.101 44.6078C126.101 46.1168 126.944 47.2537 128.393 47.2537C129.875 47.2537 130.719 46.0151 130.719 44.6252C130.719 42.8108 129.472 42.0141 128.393 42.0141C127.196 42.0127 126.101 42.8951 126.101 44.6078Z" fill="#068C53"/>
<path d="M134.156 41.0968H135.37V43.9797H138.673V41.0968H139.886V48.1347H138.673V45.0992H135.37V48.1347H134.156V41.0968Z" fill="#068C53"/>
<path d="M143.391 41.0968V45.7432L148.178 40.5545V48.1347H146.964V43.4374L142.178 48.6261V41.0968H143.391Z" fill="#068C53"/>
<path d="M151.832 45.2344C151.748 45.2344 150.99 45.166 150.484 44.6746C150.198 44.4028 149.928 43.9288 149.928 43.2673C149.928 42.6058 150.163 42.0461 150.552 41.6899C151.159 41.1128 151.917 41.0968 152.608 41.0968H155.051V48.1347H153.837V45.3027H153.096L151.108 48.1347H149.659L151.832 45.2344ZM153.837 42.1828H152.709C152.221 42.1828 151.867 42.2162 151.614 42.3689C151.412 42.5041 151.176 42.7759 151.176 43.2339C151.176 43.6075 151.311 43.8954 151.614 44.0815C151.968 44.3025 152.406 44.285 152.693 44.285H153.839V42.1828H153.837Z" fill="#068C53"/>
<path d="M162.145 40.5545L165.043 46.2869L167.875 40.5545L169.559 48.1347H168.313L167.385 43.7762L165.009 48.6261L162.599 43.7762L161.706 48.1347H160.459L162.145 40.5545Z" fill="#068C53"/>
<path d="M177.245 46.3364C177.042 46.726 176.739 47.1505 176.385 47.4732C175.745 48.0504 174.953 48.3383 174.059 48.3383C172.374 48.3383 170.604 47.2697 170.604 44.6586C170.604 42.5564 171.885 40.9281 173.992 40.9281C175.358 40.9281 176.217 41.6071 176.638 42.2162C177.076 42.8443 177.328 43.9288 177.295 44.8622H171.851C171.869 46.3204 172.863 47.2537 174.076 47.2537C174.65 47.2537 175.105 47.0836 175.508 46.7449C175.829 46.473 176.082 46.1168 176.233 45.7781L177.245 46.3364ZM176.048 43.8445C175.846 42.7425 175.02 42.0127 173.992 42.0127C172.964 42.0127 172.121 42.7934 171.937 43.8445H176.048Z" fill="#068C53"/>
<path d="M185.89 36.2643C185.485 37.6207 184.34 37.9943 183.599 38.1804C182.941 38.3505 182.048 38.5031 181.374 38.9945C180.497 39.656 179.958 40.9281 179.907 42.2162H179.94C180.396 41.4355 181.238 40.9281 182.485 40.9281C184.574 40.9281 186.125 42.539 186.125 44.6412C186.125 46.7434 184.593 48.3383 182.3 48.3383C181.119 48.3383 180.345 47.8803 179.89 47.4573C178.828 46.473 178.711 45.0657 178.711 43.8285C178.711 42.5739 178.762 39.3682 180.699 38.0292C181.457 37.5029 182.333 37.3503 183.142 37.1642C184.085 36.9432 184.389 36.6553 184.541 36.2657H185.89V36.2643ZM179.958 44.6412C179.958 46.3713 181.171 47.2523 182.418 47.2523C183.682 47.2523 184.879 46.3538 184.879 44.6412C184.879 42.9111 183.698 42.0127 182.418 42.0127C181.138 42.0127 179.958 42.9286 179.958 44.6412Z" fill="#068C53"/>
<path d="M194.18 46.3364C193.978 46.726 193.674 47.1505 193.32 47.4732C192.68 48.0504 191.889 48.3383 190.994 48.3383C189.31 48.3383 187.54 47.2697 187.54 44.6586C187.54 42.5564 188.82 40.9281 190.928 40.9281C192.293 40.9281 193.153 41.6071 193.573 42.2162C194.011 42.8443 194.264 43.9288 194.231 44.8622H188.787C188.804 46.3204 189.798 47.2537 191.012 47.2537C191.585 47.2537 192.04 47.0836 192.444 46.7449C192.764 46.473 193.017 46.1168 193.169 45.7781L194.18 46.3364ZM192.984 43.8445C192.782 42.7425 191.955 42.0127 190.928 42.0127C189.899 42.0127 189.057 42.7934 188.872 43.8445H192.984Z" fill="#068C53"/>
<path d="M201.376 48.1347H200.163V42.2162H197.669V45.387C197.669 45.9802 197.669 46.7609 197.13 47.4224C196.91 47.6942 196.389 48.1682 195.446 48.1682C195.327 48.1682 195.193 48.1507 195.074 48.1347V47.0153C195.158 47.0327 195.259 47.0487 195.344 47.0487C195.8 47.0487 196.086 46.8118 196.22 46.5908C196.439 46.252 196.455 45.8101 196.455 45.387V41.0968H201.376V48.1347Z" fill="#068C53"/>
<path d="M204.881 41.0968V45.7432L209.667 40.5545V48.1347H208.453V43.4374L203.667 48.6261V41.0968H204.881Z" fill="#068C53"/>
<path d="M51.6884 5.37043H41.9623V11.5884H51.3951V15.1198H41.9623V22.8454H51.6884V26.3768H38.2334V1.83618H51.6884V5.37043Z" fill="#068C53"/>
<path d="M55.7832 26.3797L60.902 0L69.3841 19.0582L77.9399 0L82.5472 26.3797H78.7446L76.2582 11.5899L69.1659 27.5209L62.1459 11.5536L59.5872 26.3811H55.7832V26.3797Z" fill="#068C53"/>
<path d="M101.999 20.4553H91.5778L88.9079 26.3782H84.8857L97.0246 0.40271L108.578 26.3782H104.556L101.999 20.4553ZM100.499 16.924L96.8801 8.60956L93.1136 16.924H100.499Z" fill="#068C53"/>
<path d="M111.651 26.3797V0.183182L129.347 18.8372V1.83908H133.076V27.8873L115.38 9.23325V26.3782H111.651V26.3797Z" fill="#068C53"/>
<path d="M146.714 26.3797L151.833 0L160.315 19.0582L168.871 0L173.478 26.3797H169.675L167.189 11.5899L160.095 27.5209L153.075 11.5536L150.516 26.3811H146.714V26.3797Z" fill="#068C53"/>
<path d="M192.929 20.4553H182.509L179.841 26.3782H175.818L187.957 0.40271L199.511 26.3782H195.489L192.929 20.4553ZM191.429 16.924L187.81 8.60956L184.043 16.924H191.429Z" fill="#068C53"/>
<path d="M208.248 5.37043V26.3782H204.519V5.37043H198.925V1.83908H213.842V5.37043H208.248Z" fill="#068C53"/>
<path d="M230.588 5.37043H220.862V11.5884H230.294V15.1198H220.862V22.8454H230.588V26.3768H217.133V1.83618H230.588V5.37043Z" fill="#068C53"/>
<path d="M239.765 1.83909C242.727 1.83909 244.628 2.20691 246.2 3.27402C248.869 5.07676 249.088 7.98297 249.088 9.05008C249.088 12.5814 246.931 15.1576 243.678 15.8932L251.283 26.3782H246.785L239.801 16.3337H239.144V26.3782H235.415V1.83765H239.765V1.83909ZM239.144 13.0975H240.314C241.337 13.0975 245.507 12.987 245.507 9.08788C245.507 5.62923 242.253 5.29775 240.424 5.29775H239.144V13.0975Z" fill="#068C53"/>
<path d="M258.668 1.83908V26.3797H254.939V1.83908H258.668Z" fill="#068C53"/>
<path d="M278.851 20.4553H268.43L265.761 26.3782H261.738L273.877 0.40271L285.431 26.3782H281.409L278.851 20.4553ZM277.352 16.924L273.733 8.60956L269.966 16.924H277.352Z" fill="#068C53"/>
<path d="M292.232 1.83909V22.8469H299.398V26.3782H288.502V1.83765H292.232V1.83909Z" fill="#068C53"/>
<path d="M312.707 7.28367C312.488 6.73121 312.158 6.21656 311.611 5.73825C310.844 5.1131 310.039 4.85578 308.978 4.85578C306.712 4.85578 305.541 6.21656 305.541 7.79977C305.541 8.53541 305.797 9.8235 308.174 10.7801L310.624 11.7731C315.121 13.6122 316.364 16.1884 316.364 18.9841C316.364 23.6567 313.073 26.858 308.503 26.858C305.687 26.858 304.006 25.7909 302.763 24.3923C301.447 22.921 300.862 21.3015 300.716 19.6092L304.409 18.7994C304.409 20.0134 304.848 21.1546 305.433 21.9266C306.128 22.8091 307.151 23.3979 308.614 23.3979C310.881 23.3979 312.637 21.742 312.637 19.2777C312.637 16.7757 310.735 15.7464 309.127 15.0835L306.787 14.0905C304.776 13.2444 301.814 11.5521 301.814 7.87247C301.814 4.56065 304.373 1.39713 308.944 1.39713C311.576 1.39713 313.076 2.39009 313.843 3.05304C314.5 3.64184 315.195 4.48796 315.708 5.51872L312.707 7.28367Z" fill="#068C53"/>
<path d="M15.1198 16.5852L24.4515 9.45859V9.45714L26.2227 8.10508C26.1548 7.80705 26.045 7.52791 25.8904 7.2764C25.8037 7.13538 25.704 7.00307 25.5899 6.88095C25.5451 6.83298 25.4498 6.74285 25.4498 6.74285C25.3905 6.68905 25.3298 6.63817 25.2663 6.59164C24.515 6.03047 23.4604 5.90544 22.3363 6.1744C22.3118 6.18021 21.1054 6.54222 20.318 6.77919C19.951 6.88968 19.5638 6.68033 19.4526 6.31106L18.9166 4.51848L18.9151 4.51704L18.9137 4.51122C18.8776 4.36874 18.8372 4.22917 18.788 4.09251C18.2231 2.47731 16.8203 1.2532 15.1082 0.934807C14.8236 0.88247 14.5303 0.854847 14.2313 0.853394C13.9322 0.854847 13.6389 0.88247 13.3543 0.934807C11.6437 1.2532 10.2394 2.47731 9.67452 4.09251C9.62684 4.22917 9.58352 4.36874 9.54885 4.51122L9.5474 4.51704V4.51848L9.01137 6.31106C8.90012 6.68178 8.51293 6.89114 8.14452 6.77919C7.35857 6.54222 6.15221 6.17876 6.12765 6.1744C4.99063 5.90108 3.92296 6.03192 3.17024 6.61054C3.11534 6.65125 3.06335 6.69487 3.01279 6.74139C3.01279 6.74139 2.9174 6.83298 2.87262 6.87951C2.86539 6.88678 2.85963 6.89404 2.8524 6.90131C2.74838 7.01471 2.65593 7.13683 2.57647 7.26768L2.57213 7.27494C2.41176 7.53663 2.29906 7.82594 2.23115 8.13706C2.05345 8.96429 2.20082 9.94272 2.63858 10.9139L5.06722 15.4338C5.13368 15.5574 5.00798 15.6955 4.8794 15.6417C4.10067 15.3161 3.32338 15.1692 2.62412 15.2128C2.1748 15.2419 1.75727 15.348 1.3903 15.5385C1.13747 15.6693 0.91065 15.838 0.714164 16.0488C0.585581 16.1855 0.475774 16.3352 0.38331 16.4951C0.305294 16.6303 0.238852 16.7728 0.183951 16.9211V16.9225C0.0727055 17.2249 0.0134692 17.5564 0.00191119 17.9053C-0.0370971 19.128 0.522019 20.5658 1.58825 21.8161L5.59599 26.0933C5.67834 26.1805 5.59887 26.3215 5.48185 26.2968C5.05853 26.2052 4.39397 26.0773 4.02122 26.1049C3.59502 26.134 3.20059 26.2387 2.8553 26.4189C2.61836 26.5454 2.4031 26.7053 2.21817 26.906C2.09826 27.0368 1.99422 27.1793 1.90753 27.3305C1.21838 28.5284 1.55934 30.3385 2.72959 31.9217C4.05442 33.5878 10.5775 38.4755 13.3399 40.5167V48.1507H15.1169V40.5051L26.2184 32.0278V29.7816L15.1169 38.2603V28.0545L26.2184 19.5772V17.3325L15.1169 25.8112V16.5852H15.1198ZM15.1198 2.7768C16.0329 3.05594 16.7856 3.75523 17.1121 4.68713C17.1439 4.77872 17.1685 4.86014 17.1887 4.94301L17.2089 5.02151L17.3274 5.32246L17.2132 5.03606L17.7493 6.82862C18.0671 7.88846 19.0192 8.59938 20.1172 8.59938C20.357 8.59938 20.5954 8.56449 20.8266 8.49471C22.2034 8.08037 22.66 7.94371 22.7828 7.90736C23.0125 7.85503 23.2321 7.8274 23.4358 7.8274C23.4979 7.8274 23.5658 7.8303 23.6352 7.83612L15.1198 14.3391V2.7768ZM13.3428 38.2967C8.45806 34.6607 4.93861 31.8112 4.13967 30.8298C3.34505 29.7409 3.19046 28.6796 3.44907 28.2275C3.47219 28.1868 3.4953 28.1563 3.52275 28.1272C3.56754 28.0792 3.61957 28.04 3.68314 28.0051C3.80016 27.944 3.95618 27.9047 4.13533 27.8902C4.24079 27.8917 4.55434 27.9236 5.10768 28.0458C5.24349 28.0748 5.37926 28.0894 5.51218 28.0894C6.27068 28.0894 6.95405 27.6372 7.25456 26.9365C7.55507 26.2357 7.41204 25.4245 6.89337 24.8692L2.91597 20.6254C2.63135 20.2867 2.40308 19.9421 2.22971 19.6063L13.3456 28.0937V38.2967H13.3428ZM13.3428 25.849L2.05924 17.2307C2.10258 17.1929 2.15026 17.161 2.20516 17.1319C2.34674 17.0577 2.53022 17.0127 2.73826 16.9996C2.78161 16.9967 2.82638 16.9967 2.87262 16.9967C3.27281 16.9967 3.73227 17.0999 4.20037 17.2962C4.44164 17.395 4.68868 17.4445 4.94151 17.4445C5.61621 17.4445 6.249 17.0825 6.59574 16.498C6.94104 15.9165 6.95549 15.1838 6.63476 14.5877L4.23793 10.1288C4.14692 9.918 4.07465 9.70865 4.02697 9.50802L13.3442 16.6245V25.849H13.3428ZM13.3428 14.3798L4.78261 7.84339C4.86929 7.83322 4.95308 7.82885 5.02821 7.82885C5.23048 7.82885 5.45008 7.85502 5.67979 7.90881C5.80115 7.94515 6.2577 8.08182 7.63599 8.49616C7.86716 8.56594 8.10553 8.60083 8.34536 8.60083C9.44481 8.60083 10.3954 7.88991 10.7133 6.83153L11.2493 5.0375L11.2753 4.94591C11.2955 4.86304 11.3201 4.78018 11.3504 4.6944C11.677 3.76104 12.4282 3.0603 13.3428 2.78117V14.3798Z" fill="#068C53"/>
</svg>
